<?xml version="1.0" encoding="UTF-8"?>
<!DOCTYPE svg PUBLIC "-//W3C//DTD SVG 1.1//EN" "http://www.w3.org/Graphics/SVG/1.1/DTD/svg11.dtd">
<!-- Creator: CorelDRAW -->
<svg xmlns="http://www.w3.org/2000/svg" xml:space="preserve" width="0.124335in" height="0.0988307in" version="1.1" style="shape-rendering:geometricPrecision; text-rendering:geometricPrecision; image-rendering:optimizeQuality; fill-rule:evenodd; clip-rule:evenodd"
viewBox="0 0 0.96 0.77"
 xmlns:xlink="http://www.w3.org/1999/xlink">
 <defs>
  <style type="text/css">
   <![CDATA[
    .fil0 {fill:#F4D13F;fill-rule:nonzero}
   ]]>
  </style>
 </defs>
 <g id="Layer_x0020_1">
  <metadata id="CorelCorpID_0Corel-Layer"/>
  <path class="fil0" d="M0.94 0.14c-0.01,-0.03 -0.03,-0.05 -0.05,-0.07 -0.04,-0.04 -0.1,-0.07 -0.17,-0.07 -0.13,0 -0.23,0.1 -0.24,0.22 -0,0 -0,0 -0,0 0,0 -0,-0 -0,-0 -0.01,-0.12 -0.11,-0.22 -0.24,-0.22 -0.07,0 -0.13,0.03 -0.17,0.07 -0.02,0.02 -0.04,0.04 -0.05,0.07 -0.01,0.03 -0.02,0.06 -0.02,0.1 0,0.01 0,0.02 0,0.03 0.01,0.2 0.19,0.44 0.48,0.49 0.29,-0.06 0.47,-0.3 0.48,-0.49 0,-0.01 0,-0.02 0,-0.03 0,-0.04 -0.01,-0.07 -0.02,-0.1z"/>
 </g>
</svg>
