<?xml version="1.0" encoding="UTF-8"?>
<!DOCTYPE svg PUBLIC "-//W3C//DTD SVG 1.1//EN" "http://www.w3.org/Graphics/SVG/1.1/DTD/svg11.dtd">
<!-- Creator: CorelDRAW -->
<svg xmlns="http://www.w3.org/2000/svg" xml:space="preserve" width="1.3815in" height="1.39787in" version="1.1" style="shape-rendering:geometricPrecision; text-rendering:geometricPrecision; image-rendering:optimizeQuality; fill-rule:evenodd; clip-rule:evenodd"
viewBox="0 0 145.61 147.33"
 xmlns:xlink="http://www.w3.org/1999/xlink">
 <defs>
  <style type="text/css">
   <![CDATA[
    .fil2 {fill:#1F1F1F;fill-rule:nonzero}
    .fil1 {fill:#E6B142;fill-rule:nonzero}
    .fil0 {fill:url(#id0);fill-rule:nonzero}
   ]]>
  </style>
  <linearGradient id="id0" gradientUnits="userSpaceOnUse" x1="-0" y1="73.67" x2="145.61" y2="73.67">
   <stop offset="0" style="stop-opacity:1; stop-color:#F4D13F"/>
   <stop offset="0.0117647" style="stop-opacity:1; stop-color:#F4D13F"/>
   <stop offset="0.968627" style="stop-opacity:1; stop-color:#F4BA3F"/>
   <stop offset="1" style="stop-opacity:1; stop-color:#F4BA3F"/>
  </linearGradient>
 </defs>
 <g id="Layer_x0020_1">
  <metadata id="CorelCorpID_0Corel-Layer"/>
  <path class="fil0" d="M130 147.33l-114.38 0c-8.62,0 -15.61,-6.99 -15.61,-15.61l0 -116.11c0,-8.62 6.99,-15.61 15.61,-15.61l114.38 0c8.62,0 15.61,6.99 15.61,15.61l0 116.11c0,8.62 -6.99,15.61 -15.61,15.61z"/>
  <path class="fil1" d="M130 0l-88.08 0c-0.31,0.63 -0.6,1.26 -0.87,1.91 -3.93,9.51 -1.85,19.28 3.51,27.17 3.01,4.43 7.05,8.27 11.65,11.14 19.54,12.2 42.09,-4.54 61.61,7.98 16.76,10.74 11.47,33.58 26.1,43.92 0.55,0.39 1.11,0.73 1.69,1.03l0 -77.54c0,-8.62 -6.99,-15.61 -15.61,-15.61z"/>
  <path class="fil1" d="M82.82 109.55c-9.39,-7.62 -21.76,-11.48 -33.82,-10.55 -8.71,0.67 -17.41,3.71 -25.99,2.08 -8.99,-1.71 -15.6,-8.13 -20.96,-15.15 -0.78,-1.02 -1.42,-2.04 -2.05,-2.92l0 48.71c0,8.62 6.99,15.61 15.61,15.61l84.65 0c0.26,-2.26 0.15,-4.61 -0.15,-6.87 -1.58,-11.99 -7.91,-23.29 -17.3,-30.92z"/>
  <path class="fil2" d="M103.3 40.59c-0.11,0 -0.2,0.05 -0.3,0.06l-0.01 -0.06 -44.22 7.76c-0,0 -0.01,-0 -0.01,-0 -0.05,0 -0.1,0.03 -0.15,0.03l-0.29 0.05 0 0.01c-0.93,0.21 -1.64,1 -1.64,1.99l0 36.21c-3.46,-1.57 -8.53,-1.27 -13.32,1.15 -6.94,3.51 -10.67,10.12 -8.32,14.77 2.35,4.65 9.88,5.58 16.82,2.07 5.85,-2.95 9.4,-8.1 8.97,-12.44l0 0 0 -24.7 40.39 -7.29 0 26.44c-3.46,-1.57 -8.53,-1.27 -13.32,1.15 -6.94,3.51 -10.67,10.12 -8.32,14.77 2.35,4.65 9.88,5.58 16.82,2.07 5.85,-2.95 9.4,-8.1 8.97,-12.44l0 -49.51c0,-1.15 -0.93,-2.08 -2.08,-2.08z"/>
 </g>
</svg>
