<?xml version="1.0" encoding="UTF-8"?>
<!DOCTYPE svg PUBLIC "-//W3C//DTD SVG 1.1//EN" "http://www.w3.org/Graphics/SVG/1.1/DTD/svg11.dtd">
<!-- Creator: CorelDRAW -->
<svg xmlns="http://www.w3.org/2000/svg" xml:space="preserve" width="0.258748in" height="0.258748in" version="1.1" style="shape-rendering:geometricPrecision; text-rendering:geometricPrecision; image-rendering:optimizeQuality; fill-rule:evenodd; clip-rule:evenodd"
viewBox="0 0 5.23 5.23"
 xmlns:xlink="http://www.w3.org/1999/xlink">
 <defs>
  <style type="text/css">
   <![CDATA[
    .fil1 {fill:#1F1F1F;fill-rule:nonzero}
    .fil0 {fill:url(#id0);fill-rule:nonzero}
   ]]>
  </style>
  <linearGradient id="id0" gradientUnits="userSpaceOnUse" x1="-0" y1="2.61" x2="5.23" y2="2.61">
   <stop offset="0" style="stop-opacity:1; stop-color:#F4D13F"/>
   <stop offset="0.0117647" style="stop-opacity:1; stop-color:#F4D13F"/>
   <stop offset="0.968627" style="stop-opacity:1; stop-color:#F4C13F"/>
   <stop offset="1" style="stop-opacity:1; stop-color:#F4C13F"/>
  </linearGradient>
 </defs>
 <g id="Layer_x0020_1">
  <metadata id="CorelCorpID_0Corel-Layer"/>
  <path class="fil0" d="M4.52 0l-3.81 0c-0.39,0 -0.71,0.32 -0.71,0.71l0 3.81c0,0.39 0.32,0.71 0.71,0.71l3.81 0c0.39,0 0.71,-0.32 0.71,-0.71l0 -3.81c0,-0.39 -0.32,-0.71 -0.71,-0.71z"/>
  <path class="fil1" d="M3.57 1.55c-0.36,-0.15 -0.64,-0.39 -0.81,-0.56 -0.06,-0.06 -0.16,-0.02 -0.16,0.07l0 0.2 0 0.58 0 1.43c-0.18,-0.15 -0.5,-0.19 -0.82,-0.08 -0.42,0.14 -0.69,0.49 -0.59,0.77 0.1,0.28 0.52,0.39 0.94,0.25 0.36,-0.12 0.6,-0.38 0.61,-0.63 0,-0 0,-0 0,-0l0 -0.01c0,-0.01 0,-0.01 0,-0.02l0 -1.44c0,-0.1 0.1,-0.17 0.19,-0.13 0.15,0.06 0.33,0.14 0.5,0.22 0.37,0.18 0.62,0.69 0.62,0.69 0,0 0.12,-1.07 -0.48,-1.32z"/>
 </g>
</svg>
