<?xml version="1.0" encoding="UTF-8"?>
<!DOCTYPE svg PUBLIC "-//W3C//DTD SVG 1.1//EN" "http://www.w3.org/Graphics/SVG/1.1/DTD/svg11.dtd">
<!-- Creator: CorelDRAW -->
<svg xmlns="http://www.w3.org/2000/svg" xml:space="preserve" width="5.13836in" height="9.70233in" version="1.1" style="shape-rendering:geometricPrecision; text-rendering:geometricPrecision; image-rendering:optimizeQuality; fill-rule:evenodd; clip-rule:evenodd"
viewBox="0 0 744.76 1406.26"
 xmlns:xlink="http://www.w3.org/1999/xlink">
 <defs>
  <style type="text/css">
   <![CDATA[
    .fil0 {fill:#1F1F1F;fill-rule:nonzero}
    .fil1 {fill:url(#id1);fill-rule:nonzero}
   ]]>
  </style>
   <clipPath id="id0">
    <path d="M-0 4.14l732.34 -4.14 12.41 1402.12 -740.62 4.14 -4.14 -1402.12z"/>
   </clipPath>
  <linearGradient id="id1" gradientUnits="userSpaceOnUse" x1="366.55" y1="27.94" x2="366.55" y2="161.66">
   <stop offset="0" style="stop-opacity:1; stop-color:#F4D13F"/>
   <stop offset="0.0117647" style="stop-opacity:1; stop-color:#F4D13F"/>
   <stop offset="0.968627" style="stop-opacity:1; stop-color:#F4C13F"/>
   <stop offset="1" style="stop-opacity:1; stop-color:#F4C13F"/>
  </linearGradient>
 </defs>
 <g id="Layer_x0020_1">
  <metadata id="CorelCorpID_0Corel-Layer"/>
  <path class="fil0" d="M634.36 1359.32l-535.62 0c-40.38,0 -73.11,-32.73 -73.11,-73.11l0 -1179.68c0,-40.38 32.73,-73.11 73.11,-73.11l535.62 0c40.38,0 73.11,32.73 73.11,73.11l0 1179.68c0,40.38 -32.73,73.11 -73.11,73.11z"/>
  <path class="fil1" d="M707.47 107.03c0,-40.38 -32.73,-73.11 -73.11,-73.11l-535.62 0c-40.38,0 -73.11,32.73 -73.11,73.11l0 8.32 157.59 0c10.98,0 19.87,8.9 19.87,19.87 0,15.23 12.34,27.57 27.57,27.57l271.78 0c15.23,0 27.57,-12.34 27.57,-27.57 0,-10.97 8.9,-19.87 19.87,-19.87l157.59 0 0 -8.32z"/>
  <g style="clip-path:url(#id0)">
   <image x="-66.19" y="-8.27" width="897.82" height="1513.82" xlink:href="phone_Images/phone_ImgID1.png"/>
  </g>
 </g>
</svg>
