<?xml version="1.0" encoding="UTF-8"?>
<!DOCTYPE svg PUBLIC "-//W3C//DTD SVG 1.1//EN" "http://www.w3.org/Graphics/SVG/1.1/DTD/svg11.dtd">
<!-- Creator: CorelDRAW -->
<svg xmlns="http://www.w3.org/2000/svg" xml:space="preserve" width="0.423256in" height="0.423252in" version="1.1" style="shape-rendering:geometricPrecision; text-rendering:geometricPrecision; image-rendering:optimizeQuality; fill-rule:evenodd; clip-rule:evenodd"
viewBox="0 0 12.74 12.74"
 xmlns:xlink="http://www.w3.org/1999/xlink">
 <defs>
  <style type="text/css">
   <![CDATA[
    .fil0 {fill:white;fill-rule:nonzero}
   ]]>
  </style>
 </defs>
 <g id="Layer_x0020_1">
  <metadata id="CorelCorpID_0Corel-Layer"/>
  <path class="fil0" d="M8.49 6.27l-3.09 -2.07c-0.27,-0.18 -0.64,0.01 -0.64,0.34l0 4.14c0,0.33 0.37,0.53 0.64,0.34l3.09 -2.07c0.24,-0.16 0.24,-0.52 0,-0.69z"/>
  <path class="fil0" d="M6.37 12.74c-3.51,0 -6.37,-2.86 -6.37,-6.37 0,-3.51 2.86,-6.37 6.37,-6.37 3.51,0 6.37,2.86 6.37,6.37 0,3.51 -2.86,6.37 -6.37,6.37zm0 -12.41l0 0c-3.33,0 -6.04,2.71 -6.04,6.04 0,3.33 2.71,6.04 6.04,6.04 3.33,0 6.04,-2.71 6.04,-6.04 0,-3.33 -2.71,-6.04 -6.04,-6.04z"/>
 </g>
</svg>
