<?xml version="1.0" encoding="UTF-8"?>
<!DOCTYPE svg PUBLIC "-//W3C//DTD SVG 1.1//EN" "http://www.w3.org/Graphics/SVG/1.1/DTD/svg11.dtd">
<!-- Creator: CorelDRAW -->
<svg xmlns="http://www.w3.org/2000/svg" xml:space="preserve" width="0.134177in" height="0.111579in" version="1.1" style="shape-rendering:geometricPrecision; text-rendering:geometricPrecision; image-rendering:optimizeQuality; fill-rule:evenodd; clip-rule:evenodd"
viewBox="0 0 1.42 1.18"
 xmlns:xlink="http://www.w3.org/1999/xlink">
 <defs>
  <style type="text/css">
   <![CDATA[
    .fil0 {fill:white;fill-rule:nonzero}
   ]]>
  </style>
 </defs>
 <g id="Layer_x0020_1">
  <metadata id="CorelCorpID_0Corel-Layer"/>
  <path class="fil0" d="M1.4 0.13l-0.22 -0.12c-0.02,-0.01 -0.05,0 -0.05,0.03l0 0.25c0,0.03 0.03,0.04 0.05,0.03l0.22 -0.12c0.02,-0.01 0.02,-0.05 0,-0.06z"/>
  <path class="fil0" d="M1.4 0.99l-0.22 -0.12c-0.02,-0.01 -0.05,0 -0.05,0.03l0 0.25c0,0.03 0.03,0.04 0.05,0.03l0.22 -0.12c0.02,-0.01 0.02,-0.05 0,-0.06z"/>
  <path class="fil0" d="M1.23 1.06c-0.18,0 -0.35,-0.08 -0.45,-0.22l-0.19 -0.24 0.19 -0.24c0.11,-0.14 0.28,-0.22 0.45,-0.22 0.02,0 0.04,0.02 0.04,0.04 0,0.02 -0.02,0.04 -0.04,0.04 -0.15,0 -0.3,0.07 -0.4,0.19l-0.15 0.2 0.15 0.2c0.09,0.12 0.24,0.19 0.4,0.19 0.02,0 0.04,0.02 0.04,0.04 0,0.02 -0.02,0.04 -0.04,0.04z"/>
  <path class="fil0" d="M0.04 1.06c-0.02,0 -0.04,-0.02 -0.04,-0.04 0,-0.02 0.02,-0.04 0.04,-0.04 0.15,0 0.3,-0.07 0.4,-0.19l0.15 -0.2 -0.15 -0.2c-0.09,-0.12 -0.24,-0.19 -0.4,-0.19 -0.02,0 -0.04,-0.02 -0.04,-0.04 0,-0.02 0.02,-0.04 0.04,-0.04 0.18,0 0.35,0.08 0.45,0.22l0.19 0.24 -0.19 0.24c-0.11,0.14 -0.28,0.22 -0.45,0.22z"/>
 </g>
</svg>
