<?xml version="1.0" encoding="UTF-8"?>
<!DOCTYPE svg PUBLIC "-//W3C//DTD SVG 1.1//EN" "http://www.w3.org/Graphics/SVG/1.1/DTD/svg11.dtd">
<!-- Creator: CorelDRAW -->
<svg xmlns="http://www.w3.org/2000/svg" xml:space="preserve" width="0.259748in" height="0.132906in" version="1.1" style="shape-rendering:geometricPrecision; text-rendering:geometricPrecision; image-rendering:optimizeQuality; fill-rule:evenodd; clip-rule:evenodd"
viewBox="0 0 4.4 2.25"
 xmlns:xlink="http://www.w3.org/1999/xlink">
 <defs>
  <style type="text/css">
   <![CDATA[
    .fil0 {fill:white;fill-rule:nonzero}
   ]]>
  </style>
 </defs>
 <g id="Layer_x0020_1">
  <metadata id="CorelCorpID_0Corel-Layer"/>
  <path class="fil0" d="M1.69 0.97l-1.4 -0.94c-0.12,-0.08 -0.29,0.01 -0.29,0.16l0 1.88c0,0.15 0.17,0.24 0.29,0.16l1.4 -0.94c0.11,-0.07 0.11,-0.24 0,-0.31z"/>
  <path class="fil0" d="M3.69 0.97l-1.4 -0.94c-0.12,-0.08 -0.29,0.01 -0.29,0.16l0 1.88c0,0.15 0.17,0.24 0.29,0.16l1.4 -0.94c0.11,-0.07 0.11,-0.24 0,-0.31z"/>
  <path class="fil0" d="M4.21 0c-0.11,0 -0.19,0.09 -0.19,0.19l0 1.87c0,0.11 0.09,0.19 0.19,0.19 0.11,0 0.19,-0.09 0.19,-0.19l0 -1.87c0,-0.11 -0.09,-0.19 -0.19,-0.19z"/>
 </g>
</svg>
