<?xml version="1.0" encoding="UTF-8"?>
<!DOCTYPE svg PUBLIC "-//W3C//DTD SVG 1.1//EN" "http://www.w3.org/Graphics/SVG/1.1/DTD/svg11.dtd">
<!-- Creator: CorelDRAW -->
<svg xmlns="http://www.w3.org/2000/svg" xml:space="preserve" width="2.06806in" height="0.610008in" version="1.1" style="shape-rendering:geometricPrecision; text-rendering:geometricPrecision; image-rendering:optimizeQuality; fill-rule:evenodd; clip-rule:evenodd"
viewBox="0 0 344.33 101.57"
 xmlns:xlink="http://www.w3.org/1999/xlink">
 <defs>
  <style type="text/css">
   <![CDATA[
    .fil53 {fill:#3F3D3D;fill-rule:nonzero}
    .fil26 {fill:url(#id0);fill-rule:nonzero}
    .fil9 {fill:url(#id1);fill-rule:nonzero}
    .fil39 {fill:url(#id2);fill-rule:nonzero}
    .fil33 {fill:url(#id3);fill-rule:nonzero}
    .fil4 {fill:url(#id4);fill-rule:nonzero}
    .fil52 {fill:url(#id5);fill-rule:nonzero}
    .fil30 {fill:url(#id6);fill-rule:nonzero}
    .fil20 {fill:url(#id7);fill-rule:nonzero}
    .fil38 {fill:url(#id8);fill-rule:nonzero}
    .fil50 {fill:url(#id9);fill-rule:nonzero}
    .fil15 {fill:url(#id10);fill-rule:nonzero}
    .fil24 {fill:url(#id11);fill-rule:nonzero}
    .fil27 {fill:url(#id12);fill-rule:nonzero}
    .fil6 {fill:url(#id13);fill-rule:nonzero}
    .fil16 {fill:url(#id14);fill-rule:nonzero}
    .fil29 {fill:url(#id15);fill-rule:nonzero}
    .fil40 {fill:url(#id16);fill-rule:nonzero}
    .fil22 {fill:url(#id17);fill-rule:nonzero}
    .fil23 {fill:url(#id18);fill-rule:nonzero}
    .fil21 {fill:url(#id19);fill-rule:nonzero}
    .fil48 {fill:url(#id20);fill-rule:nonzero}
    .fil37 {fill:url(#id21);fill-rule:nonzero}
    .fil8 {fill:url(#id22);fill-rule:nonzero}
    .fil45 {fill:url(#id23);fill-rule:nonzero}
    .fil17 {fill:url(#id24);fill-rule:nonzero}
    .fil3 {fill:url(#id25);fill-rule:nonzero}
    .fil36 {fill:url(#id26);fill-rule:nonzero}
    .fil46 {fill:url(#id27);fill-rule:nonzero}
    .fil32 {fill:url(#id28);fill-rule:nonzero}
    .fil0 {fill:url(#id29);fill-rule:nonzero}
    .fil18 {fill:url(#id30);fill-rule:nonzero}
    .fil11 {fill:url(#id31);fill-rule:nonzero}
    .fil2 {fill:url(#id32);fill-rule:nonzero}
    .fil34 {fill:url(#id33);fill-rule:nonzero}
    .fil51 {fill:url(#id34);fill-rule:nonzero}
    .fil43 {fill:url(#id35);fill-rule:nonzero}
    .fil1 {fill:url(#id36);fill-rule:nonzero}
    .fil5 {fill:url(#id37);fill-rule:nonzero}
    .fil25 {fill:url(#id38);fill-rule:nonzero}
    .fil12 {fill:url(#id39);fill-rule:nonzero}
    .fil44 {fill:url(#id40);fill-rule:nonzero}
    .fil19 {fill:url(#id41);fill-rule:nonzero}
    .fil31 {fill:url(#id42);fill-rule:nonzero}
    .fil49 {fill:url(#id43);fill-rule:nonzero}
    .fil41 {fill:url(#id44);fill-rule:nonzero}
    .fil13 {fill:url(#id45);fill-rule:nonzero}
    .fil28 {fill:url(#id46);fill-rule:nonzero}
    .fil7 {fill:url(#id47);fill-rule:nonzero}
    .fil47 {fill:url(#id48);fill-rule:nonzero}
    .fil42 {fill:url(#id49);fill-rule:nonzero}
    .fil14 {fill:url(#id50);fill-rule:nonzero}
    .fil35 {fill:url(#id51);fill-rule:nonzero}
    .fil10 {fill:url(#id52);fill-rule:nonzero}
   ]]>
  </style>
  <linearGradient id="id0" gradientUnits="userSpaceOnUse" x1="-3.15" y1="28.68" x2="345.54" y2="28.68">
   <stop offset="0" style="stop-opacity:0; stop-color:#F4D13F"/>
   <stop offset="0.0117647" style="stop-opacity:0; stop-color:#F4D13F"/>
   <stop offset="0.509804" style="stop-opacity:1; stop-color:#F4D13F"/>
   <stop offset="0.988235" style="stop-opacity:0; stop-color:#F4D13F"/>
   <stop offset="1" style="stop-opacity:1; stop-color:#F4D13F"/>
  </linearGradient>
  <linearGradient id="id1" gradientUnits="userSpaceOnUse" xlink:href="#id0" x1="-3.14" y1="28.68" x2="345.55" y2="28.68">
  </linearGradient>
  <linearGradient id="id2" gradientUnits="userSpaceOnUse" xlink:href="#id0" x1="-3.16" y1="26.32" x2="345.53" y2="26.32">
  </linearGradient>
  <linearGradient id="id3" gradientUnits="userSpaceOnUse" xlink:href="#id0" x1="-3.15" y1="28.68" x2="345.53" y2="28.68">
  </linearGradient>
  <linearGradient id="id4" gradientUnits="userSpaceOnUse" xlink:href="#id0" x1="-3.14" y1="44.59" x2="345.55" y2="44.59">
  </linearGradient>
  <linearGradient id="id5" gradientUnits="userSpaceOnUse" xlink:href="#id0" x1="-3.16" y1="33.98" x2="345.52" y2="33.98">
  </linearGradient>
  <linearGradient id="id6" gradientUnits="userSpaceOnUse" xlink:href="#id0" x1="-3.15" y1="30.44" x2="345.53" y2="30.44">
  </linearGradient>
  <linearGradient id="id7" gradientUnits="userSpaceOnUse" xlink:href="#id0" x1="-3.15" y1="39.29" x2="345.54" y2="39.29">
  </linearGradient>
  <linearGradient id="id8" gradientUnits="userSpaceOnUse" xlink:href="#id0" x1="-3.16" y1="28.68" x2="345.53" y2="28.68">
  </linearGradient>
  <linearGradient id="id9" gradientUnits="userSpaceOnUse" xlink:href="#id0" x1="-3.16" y1="42.24" x2="345.52" y2="42.24">
  </linearGradient>
  <linearGradient id="id10" gradientUnits="userSpaceOnUse" xlink:href="#id0" x1="-3.14" y1="39.29" x2="345.54" y2="39.29">
  </linearGradient>
  <linearGradient id="id11" gradientUnits="userSpaceOnUse" xlink:href="#id0" x1="-3.15" y1="27.5" x2="345.54" y2="27.5">
  </linearGradient>
  <linearGradient id="id12" gradientUnits="userSpaceOnUse" xlink:href="#id0" x1="-3.15" y1="42.24" x2="345.54" y2="42.24">
  </linearGradient>
  <linearGradient id="id13" gradientUnits="userSpaceOnUse" xlink:href="#id0" x1="-3.14" y1="35.75" x2="345.55" y2="35.75">
  </linearGradient>
  <linearGradient id="id14" gradientUnits="userSpaceOnUse" xlink:href="#id0" x1="-3.14" y1="29.27" x2="345.54" y2="29.27">
  </linearGradient>
  <linearGradient id="id15" gradientUnits="userSpaceOnUse" xlink:href="#id0" x1="-3.15" y1="33.39" x2="345.54" y2="33.39">
  </linearGradient>
  <linearGradient id="id16" gradientUnits="userSpaceOnUse" xlink:href="#id0" x1="-3.16" y1="32.8" x2="345.53" y2="32.8">
  </linearGradient>
  <linearGradient id="id17" gradientUnits="userSpaceOnUse" xlink:href="#id0" x1="-3.07" y1="32.8" x2="345.44" y2="32.8">
  </linearGradient>
  <linearGradient id="id18" gradientUnits="userSpaceOnUse" xlink:href="#id0" x1="-3.23" y1="30.44" x2="345.63" y2="30.44">
  </linearGradient>
  <linearGradient id="id19" gradientUnits="userSpaceOnUse" xlink:href="#id0" x1="-3.15" y1="36.34" x2="345.54" y2="36.34">
  </linearGradient>
  <linearGradient id="id20" gradientUnits="userSpaceOnUse" xlink:href="#id0" x1="-3.16" y1="35.75" x2="345.52" y2="35.75">
  </linearGradient>
  <linearGradient id="id21" gradientUnits="userSpaceOnUse" xlink:href="#id0" x1="-3.16" y1="30.44" x2="345.53" y2="30.44">
  </linearGradient>
  <linearGradient id="id22" gradientUnits="userSpaceOnUse" xlink:href="#id0" x1="-3.14" y1="26.32" x2="345.55" y2="26.32">
  </linearGradient>
  <linearGradient id="id23" gradientUnits="userSpaceOnUse" xlink:href="#id0" x1="-3.16" y1="28.68" x2="345.53" y2="28.68">
  </linearGradient>
  <linearGradient id="id24" gradientUnits="userSpaceOnUse" xlink:href="#id0" x1="-3.14" y1="36.34" x2="345.54" y2="36.34">
  </linearGradient>
  <linearGradient id="id25" gradientUnits="userSpaceOnUse" xlink:href="#id0" x1="-3.14" y1="42.24" x2="345.55" y2="42.24">
  </linearGradient>
  <linearGradient id="id26" gradientUnits="userSpaceOnUse" xlink:href="#id0" x1="-3.16" y1="33.98" x2="345.53" y2="33.98">
  </linearGradient>
  <linearGradient id="id27" gradientUnits="userSpaceOnUse" xlink:href="#id0" x1="-3.16" y1="41.65" x2="345.53" y2="41.65">
  </linearGradient>
  <linearGradient id="id28" gradientUnits="userSpaceOnUse" xlink:href="#id0" x1="-3.15" y1="25.73" x2="345.53" y2="25.73">
  </linearGradient>
  <linearGradient id="id29" gradientUnits="userSpaceOnUse" xlink:href="#id0" x1="-3.14" y1="42.24" x2="345.55" y2="42.24">
  </linearGradient>
  <linearGradient id="id30" gradientUnits="userSpaceOnUse" xlink:href="#id0" x1="-3.15" y1="24.55" x2="345.54" y2="24.55">
  </linearGradient>
  <linearGradient id="id31" gradientUnits="userSpaceOnUse" xlink:href="#id0" x1="-3.18" y1="42.24" x2="345.68" y2="42.24">
  </linearGradient>
  <linearGradient id="id32" gradientUnits="userSpaceOnUse" xlink:href="#id0" x1="-3.14" y1="36.34" x2="345.55" y2="36.34">
  </linearGradient>
  <linearGradient id="id33" gradientUnits="userSpaceOnUse" xlink:href="#id0" x1="-3.04" y1="32.21" x2="345.47" y2="32.21">
  </linearGradient>
  <linearGradient id="id34" gradientUnits="userSpaceOnUse" xlink:href="#id0" x1="-3.16" y1="36.34" x2="345.52" y2="36.34">
  </linearGradient>
  <linearGradient id="id35" gradientUnits="userSpaceOnUse" xlink:href="#id0" x1="-3.16" y1="33.98" x2="345.53" y2="33.98">
  </linearGradient>
  <linearGradient id="id36" gradientUnits="userSpaceOnUse" xlink:href="#id0" x1="-3.14" y1="36.34" x2="345.55" y2="36.34">
  </linearGradient>
  <linearGradient id="id37" gradientUnits="userSpaceOnUse" xlink:href="#id0" x1="-3.14" y1="38.11" x2="345.55" y2="38.11">
  </linearGradient>
  <linearGradient id="id38" gradientUnits="userSpaceOnUse" xlink:href="#id0" x1="-3.15" y1="36.34" x2="345.54" y2="36.34">
  </linearGradient>
  <linearGradient id="id39" gradientUnits="userSpaceOnUse" xlink:href="#id0" x1="-3.14" y1="44" x2="345.54" y2="44">
  </linearGradient>
  <linearGradient id="id40" gradientUnits="userSpaceOnUse" xlink:href="#id0" x1="-3.16" y1="31.62" x2="345.53" y2="31.62">
  </linearGradient>
  <linearGradient id="id41" gradientUnits="userSpaceOnUse" xlink:href="#id0" x1="-3.15" y1="42.24" x2="345.54" y2="42.24">
  </linearGradient>
  <linearGradient id="id42" gradientUnits="userSpaceOnUse" xlink:href="#id0" x1="-3.15" y1="36.34" x2="345.53" y2="36.34">
  </linearGradient>
  <linearGradient id="id43" gradientUnits="userSpaceOnUse" xlink:href="#id0" x1="-3.16" y1="32.8" x2="345.52" y2="32.8">
  </linearGradient>
  <linearGradient id="id44" gradientUnits="userSpaceOnUse" xlink:href="#id0" x1="-3.16" y1="38.7" x2="345.53" y2="38.7">
  </linearGradient>
  <linearGradient id="id45" gradientUnits="userSpaceOnUse" xlink:href="#id0" x1="-3.14" y1="38.11" x2="345.54" y2="38.11">
  </linearGradient>
  <linearGradient id="id46" gradientUnits="userSpaceOnUse" xlink:href="#id0" x1="-3.15" y1="37.52" x2="345.54" y2="37.52">
  </linearGradient>
  <linearGradient id="id47" gradientUnits="userSpaceOnUse" xlink:href="#id0" x1="-3.14" y1="31.62" x2="345.55" y2="31.62">
  </linearGradient>
  <linearGradient id="id48" gradientUnits="userSpaceOnUse" xlink:href="#id0" x1="-3.01" y1="38.11" x2="345.51" y2="38.11">
  </linearGradient>
  <linearGradient id="id49" gradientUnits="userSpaceOnUse" xlink:href="#id0" x1="-3.16" y1="36.34" x2="345.53" y2="36.34">
  </linearGradient>
  <linearGradient id="id50" gradientUnits="userSpaceOnUse" xlink:href="#id0" x1="-3.14" y1="36.34" x2="345.54" y2="36.34">
  </linearGradient>
  <linearGradient id="id51" gradientUnits="userSpaceOnUse" xlink:href="#id0" x1="-3.27" y1="36.34" x2="345.59" y2="36.34">
  </linearGradient>
  <linearGradient id="id52" gradientUnits="userSpaceOnUse" xlink:href="#id0" x1="-3.18" y1="36.34" x2="345.68" y2="36.34">
  </linearGradient>
 </defs>
 <g id="Layer_x0020_1">
  <metadata id="CorelCorpID_0Corel-Layer"/>
  <path class="fil0" d="M0.66 49.1c-0.37,0 -0.66,-0.26 -0.66,-0.59l0 -12.55c0,-0.33 0.3,-0.59 0.66,-0.59 0.37,0 0.66,0.26 0.66,0.59l0 12.55c0,0.33 -0.3,0.59 -0.66,0.59z"/>
  <path class="fil1" d="M7.26 49.1c-0.37,0 -0.66,-0.26 -0.66,-0.59l0 -24.34c0,-0.33 0.3,-0.59 0.66,-0.59 0.37,0 0.66,0.26 0.66,0.59l0 24.34c0,0.33 -0.3,0.59 -0.66,0.59z"/>
  <path class="fil2" d="M13.86 49.1c-0.37,0 -0.66,-0.26 -0.66,-0.59l0 -24.34c0,-0.33 0.3,-0.59 0.66,-0.59 0.37,0 0.66,0.26 0.66,0.59l0 24.34c0,0.33 -0.3,0.59 -0.66,0.59z"/>
  <path class="fil3" d="M20.45 49.1c-0.37,0 -0.66,-0.26 -0.66,-0.59l0 -12.55c0,-0.33 0.3,-0.59 0.66,-0.59 0.37,0 0.66,0.26 0.66,0.59l0 12.55c0,0.33 -0.3,0.59 -0.66,0.59z"/>
  <path class="fil4" d="M27.05 49.1c-0.37,0 -0.66,-0.26 -0.66,-0.59l0 -7.83c0,-0.33 0.3,-0.59 0.66,-0.59 0.37,0 0.66,0.26 0.66,0.59l0 7.83c0,0.33 -0.3,0.59 -0.66,0.59z"/>
  <path class="fil5" d="M33.65 49.1c-0.37,0 -0.66,-0.26 -0.66,-0.59l0 -20.8c0,-0.33 0.3,-0.59 0.66,-0.59 0.37,0 0.66,0.26 0.66,0.59l0 20.8c0,0.33 -0.3,0.59 -0.66,0.59z"/>
  <path class="fil6" d="M40.24 49.1c-0.37,0 -0.66,-0.26 -0.66,-0.59l0 -25.52c0,-0.33 0.3,-0.59 0.66,-0.59 0.37,0 0.66,0.26 0.66,0.59l0 25.52c0,0.33 -0.3,0.59 -0.66,0.59z"/>
  <path class="fil7" d="M46.84 49.1c-0.37,0 -0.66,-0.26 -0.66,-0.59l0 -33.77c0,-0.33 0.3,-0.59 0.66,-0.59 0.37,0 0.66,0.26 0.66,0.59l0 33.77c0,0.33 -0.3,0.59 -0.66,0.59z"/>
  <path class="fil8" d="M53.44 49.1c-0.37,0 -0.66,-0.26 -0.66,-0.59l0 -44.38c0,-0.33 0.3,-0.59 0.66,-0.59 0.37,0 0.66,0.26 0.66,0.59l0 44.38c0,0.33 -0.3,0.59 -0.66,0.59z"/>
  <path class="fil9" d="M60.03 49.1c-0.37,0 -0.66,-0.26 -0.66,-0.59l0 -39.67c0,-0.33 0.3,-0.59 0.66,-0.59 0.37,0 0.66,0.26 0.66,0.59l0 39.67c0,0.33 -0.3,0.59 -0.66,0.59z"/>
  <path class="fil10" d="M66.63 49.1c-0.37,0 -0.67,-0.26 -0.67,-0.59l0 -24.34c0,-0.33 0.3,-0.59 0.67,-0.59 0.37,0 0.66,0.26 0.66,0.59l0 24.34c0,0.33 -0.3,0.59 -0.66,0.59z"/>
  <path class="fil11" d="M73.22 49.1c-0.37,0 -0.67,-0.26 -0.67,-0.59l0 -12.55c0,-0.33 0.3,-0.59 0.67,-0.59 0.37,0 0.66,0.26 0.66,0.59l0 12.55c0,0.33 -0.3,0.59 -0.66,0.59z"/>
  <path class="fil12" d="M79.82 49.1c-0.37,0 -0.67,-0.26 -0.67,-0.59l0 -9.01c0,-0.33 0.3,-0.59 0.67,-0.59 0.37,0 0.66,0.26 0.66,0.59l0 9.01c0,0.33 -0.3,0.59 -0.66,0.59z"/>
  <path class="fil13" d="M86.42 49.1c-0.37,0 -0.66,-0.26 -0.66,-0.59l0 -20.8c0,-0.33 0.3,-0.59 0.66,-0.59 0.37,0 0.66,0.26 0.66,0.59l0 20.8c0,0.33 -0.3,0.59 -0.66,0.59z"/>
  <path class="fil14" d="M93.01 49.1c-0.37,0 -0.66,-0.26 -0.66,-0.59l0 -24.34c0,-0.33 0.3,-0.59 0.66,-0.59 0.37,0 0.66,0.26 0.66,0.59l0 24.34c0,0.33 -0.3,0.59 -0.66,0.59z"/>
  <path class="fil15" d="M99.61 49.1c-0.37,0 -0.66,-0.26 -0.66,-0.59l0 -18.44c0,-0.33 0.3,-0.59 0.66,-0.59 0.37,0 0.66,0.26 0.66,0.59l0 18.44c0,0.33 -0.3,0.59 -0.66,0.59z"/>
  <path class="fil16" d="M106.2 49.1c-0.37,0 -0.66,-0.26 -0.66,-0.59l0 -38.49c0,-0.33 0.3,-0.59 0.66,-0.59 0.37,0 0.66,0.26 0.66,0.59l0 38.49c0,0.33 -0.3,0.59 -0.66,0.59z"/>
  <path class="fil17" d="M112.8 49.1c-0.37,0 -0.66,-0.26 -0.66,-0.59l0 -24.34c0,-0.33 0.3,-0.59 0.66,-0.59 0.37,0 0.66,0.26 0.66,0.59l0 24.34c0,0.33 -0.3,0.59 -0.66,0.59z"/>
  <path class="fil18" d="M119.4 49.1c-0.37,0 -0.66,-0.26 -0.66,-0.59l0 -47.92c0,-0.33 0.3,-0.59 0.66,-0.59 0.37,0 0.66,0.26 0.66,0.59l0 47.92c0,0.33 -0.3,0.59 -0.66,0.59z"/>
  <path class="fil19" d="M125.99 49.1c-0.37,0 -0.66,-0.26 -0.66,-0.59l0 -12.55c0,-0.33 0.3,-0.59 0.66,-0.59 0.37,0 0.66,0.26 0.66,0.59l0 12.55c0,0.33 -0.3,0.59 -0.66,0.59z"/>
  <path class="fil20" d="M132.59 49.1c-0.37,0 -0.66,-0.26 -0.66,-0.59l0 -18.44c0,-0.33 0.3,-0.59 0.66,-0.59 0.37,0 0.66,0.26 0.66,0.59l0 18.44c0,0.33 -0.3,0.59 -0.66,0.59z"/>
  <path class="fil21" d="M139.19 49.1c-0.37,0 -0.66,-0.26 -0.66,-0.59l0 -24.34c0,-0.33 0.3,-0.59 0.66,-0.59 0.37,0 0.66,0.26 0.66,0.59l0 24.34c0,0.33 -0.3,0.59 -0.66,0.59z"/>
  <path class="fil22" d="M145.78 49.1c-0.37,0 -0.66,-0.26 -0.66,-0.59l0 -31.41c0,-0.33 0.3,-0.59 0.66,-0.59 0.37,0 0.66,0.26 0.66,0.59l0 31.41c0,0.33 -0.3,0.59 -0.66,0.59z"/>
  <path class="fil23" d="M152.38 49.1c-0.37,0 -0.67,-0.26 -0.67,-0.59l0 -36.13c0,-0.33 0.3,-0.59 0.67,-0.59 0.37,0 0.66,0.26 0.66,0.59l0 36.13c0,0.33 -0.3,0.59 -0.66,0.59z"/>
  <path class="fil24" d="M158.97 49.1c-0.37,0 -0.66,-0.26 -0.66,-0.59l0 -42.02c0,-0.33 0.3,-0.59 0.66,-0.59 0.37,0 0.66,0.26 0.66,0.59l0 42.02c0,0.33 -0.3,0.59 -0.66,0.59z"/>
  <path class="fil25" d="M165.57 49.1c-0.37,0 -0.66,-0.26 -0.66,-0.59l0 -24.34c0,-0.33 0.3,-0.59 0.66,-0.59 0.37,0 0.66,0.26 0.66,0.59l0 24.34c0,0.33 -0.3,0.59 -0.66,0.59z"/>
  <path class="fil26" d="M172.17 49.1c-0.37,0 -0.66,-0.26 -0.66,-0.59l0 -39.67c0,-0.33 0.3,-0.59 0.66,-0.59 0.37,0 0.66,0.26 0.66,0.59l0 39.67c0,0.33 -0.3,0.59 -0.66,0.59z"/>
  <path class="fil27" d="M178.76 49.1c-0.37,0 -0.66,-0.26 -0.66,-0.59l0 -12.55c0,-0.33 0.3,-0.59 0.66,-0.59 0.37,0 0.66,0.26 0.66,0.59l0 12.55c0,0.33 -0.3,0.59 -0.66,0.59z"/>
  <path class="fil28" d="M185.36 49.1c-0.37,0 -0.66,-0.26 -0.66,-0.59l0 -21.98c0,-0.33 0.3,-0.59 0.66,-0.59 0.37,0 0.66,0.26 0.66,0.59l0 21.98c0,0.33 -0.3,0.59 -0.66,0.59z"/>
  <path class="fil29" d="M191.96 49.1c-0.37,0 -0.66,-0.26 -0.66,-0.59l0 -30.23c0,-0.33 0.3,-0.59 0.66,-0.59 0.37,0 0.66,0.26 0.66,0.59l0 30.23c0,0.33 -0.3,0.59 -0.66,0.59z"/>
  <path class="fil30" d="M198.55 49.1c-0.37,0 -0.66,-0.26 -0.66,-0.59l0 -36.13c0,-0.33 0.3,-0.59 0.66,-0.59 0.37,0 0.66,0.26 0.66,0.59l0 36.13c0,0.33 -0.3,0.59 -0.66,0.59z"/>
  <path class="fil31" d="M205.15 49.1c-0.37,0 -0.66,-0.26 -0.66,-0.59l0 -24.34c0,-0.33 0.3,-0.59 0.66,-0.59 0.37,0 0.66,0.26 0.66,0.59l0 24.34c0,0.33 -0.3,0.59 -0.66,0.59z"/>
  <path class="fil32" d="M211.74 49.1c-0.37,0 -0.66,-0.26 -0.66,-0.59l0 -45.56c0,-0.33 0.3,-0.59 0.66,-0.59 0.37,0 0.66,0.26 0.66,0.59l0 45.56c0,0.33 -0.3,0.59 -0.66,0.59z"/>
  <path class="fil33" d="M218.34 49.1c-0.37,0 -0.66,-0.26 -0.66,-0.59l0 -39.67c0,-0.33 0.3,-0.59 0.66,-0.59 0.37,0 0.66,0.26 0.66,0.59l0 39.67c0,0.33 -0.3,0.59 -0.66,0.59z"/>
  <path class="fil34" d="M224.94 49.1c-0.37,0 -0.66,-0.26 -0.66,-0.59l0 -32.59c0,-0.33 0.3,-0.59 0.66,-0.59 0.37,0 0.66,0.26 0.66,0.59l0 32.59c0,0.33 -0.3,0.59 -0.66,0.59z"/>
  <path class="fil35" d="M231.53 49.1c-0.37,0 -0.66,-0.26 -0.66,-0.59l0 -24.34c0,-0.33 0.3,-0.59 0.66,-0.59 0.37,0 0.67,0.26 0.67,0.59l0 24.34c0,0.33 -0.3,0.59 -0.67,0.59z"/>
  <path class="fil36" d="M238.13 49.1c-0.37,0 -0.66,-0.26 -0.66,-0.59l0 -29.05c0,-0.33 0.3,-0.59 0.66,-0.59 0.37,0 0.66,0.26 0.66,0.59l0 29.05c0,0.33 -0.3,0.59 -0.66,0.59z"/>
  <path class="fil37" d="M244.73 49.1c-0.37,0 -0.66,-0.26 -0.66,-0.59l0 -36.13c0,-0.33 0.3,-0.59 0.66,-0.59 0.37,0 0.66,0.26 0.66,0.59l0 36.13c0,0.33 -0.3,0.59 -0.66,0.59z"/>
  <path class="fil38" d="M251.32 49.1c-0.37,0 -0.66,-0.26 -0.66,-0.59l0 -39.67c0,-0.33 0.3,-0.59 0.66,-0.59 0.37,0 0.66,0.26 0.66,0.59l0 39.67c0,0.33 -0.3,0.59 -0.66,0.59z"/>
  <path class="fil39" d="M257.92 49.1c-0.37,0 -0.66,-0.26 -0.66,-0.59l0 -44.38c0,-0.33 0.3,-0.59 0.66,-0.59 0.37,0 0.66,0.26 0.66,0.59l0 44.38c0,0.33 -0.3,0.59 -0.66,0.59z"/>
  <path class="fil40" d="M264.52 49.1c-0.37,0 -0.66,-0.26 -0.66,-0.59l0 -31.41c0,-0.33 0.3,-0.59 0.66,-0.59 0.37,0 0.66,0.26 0.66,0.59l0 31.41c0,0.33 -0.3,0.59 -0.66,0.59z"/>
  <path class="fil41" d="M271.11 49.1c-0.37,0 -0.66,-0.26 -0.66,-0.59l0 -19.62c0,-0.33 0.3,-0.59 0.66,-0.59 0.37,0 0.66,0.26 0.66,0.59l0 19.62c0,0.33 -0.3,0.59 -0.66,0.59z"/>
  <path class="fil42" d="M277.71 49.1c-0.37,0 -0.66,-0.26 -0.66,-0.59l0 -24.34c0,-0.33 0.3,-0.59 0.66,-0.59 0.37,0 0.66,0.26 0.66,0.59l0 24.34c0,0.33 -0.3,0.59 -0.66,0.59z"/>
  <path class="fil43" d="M284.3 49.1c-0.37,0 -0.66,-0.26 -0.66,-0.59l0 -29.05c0,-0.33 0.3,-0.59 0.66,-0.59 0.37,0 0.66,0.26 0.66,0.59l0 29.05c0,0.33 -0.3,0.59 -0.66,0.59z"/>
  <path class="fil44" d="M290.9 49.1c-0.37,0 -0.66,-0.26 -0.66,-0.59l0 -33.77c0,-0.33 0.3,-0.59 0.66,-0.59 0.37,0 0.66,0.26 0.66,0.59l0 33.77c0,0.33 -0.3,0.59 -0.66,0.59z"/>
  <path class="fil45" d="M297.5 49.1c-0.37,0 -0.66,-0.26 -0.66,-0.59l0 -39.67c0,-0.33 0.3,-0.59 0.66,-0.59 0.37,0 0.66,0.26 0.66,0.59l0 39.67c0,0.33 -0.3,0.59 -0.66,0.59z"/>
  <path class="fil46" d="M304.09 49.1c-0.37,0 -0.66,-0.26 -0.66,-0.59l0 -13.73c0,-0.33 0.3,-0.59 0.66,-0.59 0.37,0 0.66,0.26 0.66,0.59l0 13.73c0,0.33 -0.3,0.59 -0.66,0.59z"/>
  <path class="fil47" d="M310.69 49.1c-0.37,0 -0.66,-0.26 -0.66,-0.59l0 -20.8c0,-0.33 0.3,-0.59 0.66,-0.59 0.37,0 0.66,0.26 0.66,0.59l0 20.8c0,0.33 -0.3,0.59 -0.66,0.59z"/>
  <path class="fil48" d="M317.29 49.1c-0.37,0 -0.66,-0.26 -0.66,-0.59l0 -25.52c0,-0.33 0.3,-0.59 0.66,-0.59 0.37,0 0.66,0.26 0.66,0.59l0 25.52c0,0.33 -0.3,0.59 -0.66,0.59z"/>
  <path class="fil49" d="M323.88 49.1c-0.37,0 -0.66,-0.26 -0.66,-0.59l0 -31.41c0,-0.33 0.3,-0.59 0.66,-0.59 0.37,0 0.66,0.26 0.66,0.59l0 31.41c0,0.33 -0.3,0.59 -0.66,0.59z"/>
  <path class="fil50" d="M330.48 49.1c-0.37,0 -0.66,-0.26 -0.66,-0.59l0 -12.55c0,-0.33 0.3,-0.59 0.66,-0.59 0.37,0 0.66,0.26 0.66,0.59l0 12.55c0,0.33 -0.3,0.59 -0.66,0.59z"/>
  <path class="fil51" d="M337.07 49.1c-0.37,0 -0.66,-0.26 -0.66,-0.59l0 -24.34c0,-0.33 0.3,-0.59 0.66,-0.59 0.37,0 0.66,0.26 0.66,0.59l0 24.34c0,0.33 -0.3,0.59 -0.66,0.59z"/>
  <path class="fil52" d="M343.67 49.1c-0.37,0 -0.66,-0.26 -0.66,-0.59l0 -29.05c0,-0.33 0.3,-0.59 0.66,-0.59 0.37,0 0.66,0.26 0.66,0.59l0 29.05c0,0.33 -0.3,0.59 -0.66,0.59z"/>
  <path class="fil53" d="M0.66 52.47c-0.37,0 -0.66,0.26 -0.66,0.59l0 12.55c0,0.33 0.3,0.59 0.66,0.59 0.37,0 0.66,-0.26 0.66,-0.59l0 -12.55c0,-0.33 -0.3,-0.59 -0.66,-0.59z"/>
  <path class="fil53" d="M7.26 52.47c-0.37,0 -0.66,0.26 -0.66,0.59l0 24.34c0,0.33 0.3,0.59 0.66,0.59 0.37,0 0.66,-0.26 0.66,-0.59l0 -24.34c0,-0.33 -0.3,-0.59 -0.66,-0.59z"/>
  <path class="fil53" d="M13.86 52.47c-0.37,0 -0.66,0.26 -0.66,0.59l0 24.34c0,0.33 0.3,0.59 0.66,0.59 0.37,0 0.66,-0.26 0.66,-0.59l0 -24.34c0,-0.33 -0.3,-0.59 -0.66,-0.59z"/>
  <path class="fil53" d="M20.45 52.47c-0.37,0 -0.66,0.26 -0.66,0.59l0 12.55c0,0.33 0.3,0.59 0.66,0.59 0.37,0 0.66,-0.26 0.66,-0.59l0 -12.55c0,-0.33 -0.3,-0.59 -0.66,-0.59z"/>
  <path class="fil53" d="M27.05 52.47c-0.37,0 -0.66,0.26 -0.66,0.59l0 7.83c0,0.33 0.3,0.59 0.66,0.59 0.37,0 0.66,-0.26 0.66,-0.59l0 -7.83c0,-0.33 -0.3,-0.59 -0.66,-0.59z"/>
  <path class="fil53" d="M33.65 52.47c-0.37,0 -0.66,0.26 -0.66,0.59l0 20.8c0,0.33 0.3,0.59 0.66,0.59 0.37,0 0.66,-0.26 0.66,-0.59l0 -20.8c0,-0.33 -0.3,-0.59 -0.66,-0.59z"/>
  <path class="fil53" d="M40.24 52.47c-0.37,0 -0.66,0.26 -0.66,0.59l0 25.52c0,0.33 0.3,0.59 0.66,0.59 0.37,0 0.66,-0.26 0.66,-0.59l0 -25.52c0,-0.33 -0.3,-0.59 -0.66,-0.59z"/>
  <path class="fil53" d="M46.84 52.47c-0.37,0 -0.66,0.26 -0.66,0.59l0 33.77c0,0.33 0.3,0.59 0.66,0.59 0.37,0 0.66,-0.26 0.66,-0.59l0 -33.77c0,-0.33 -0.3,-0.59 -0.66,-0.59z"/>
  <path class="fil53" d="M53.44 52.47c-0.37,0 -0.66,0.26 -0.66,0.59l0 44.38c0,0.33 0.3,0.59 0.66,0.59 0.37,0 0.66,-0.26 0.66,-0.59l0 -44.38c0,-0.33 -0.3,-0.59 -0.66,-0.59z"/>
  <path class="fil53" d="M60.03 52.47c-0.37,0 -0.66,0.26 -0.66,0.59l0 39.67c0,0.33 0.3,0.59 0.66,0.59 0.37,0 0.66,-0.26 0.66,-0.59l0 -39.67c0,-0.33 -0.3,-0.59 -0.66,-0.59z"/>
  <path class="fil53" d="M66.63 52.47c-0.37,0 -0.67,0.26 -0.67,0.59l0 24.34c0,0.33 0.3,0.59 0.67,0.59 0.37,0 0.66,-0.26 0.66,-0.59l0 -24.34c0,-0.33 -0.3,-0.59 -0.66,-0.59z"/>
  <path class="fil53" d="M73.22 52.47c-0.37,0 -0.67,0.26 -0.67,0.59l0 12.55c0,0.33 0.3,0.59 0.67,0.59 0.37,0 0.66,-0.26 0.66,-0.59l0 -12.55c0,-0.33 -0.3,-0.59 -0.66,-0.59z"/>
  <path class="fil53" d="M79.82 52.47c-0.37,0 -0.67,0.26 -0.67,0.59l0 9.01c0,0.33 0.3,0.59 0.67,0.59 0.37,0 0.66,-0.26 0.66,-0.59l0 -9.01c0,-0.33 -0.3,-0.59 -0.66,-0.59z"/>
  <path class="fil53" d="M86.42 52.47c-0.37,0 -0.66,0.26 -0.66,0.59l0 20.8c0,0.33 0.3,0.59 0.66,0.59 0.37,0 0.66,-0.26 0.66,-0.59l0 -20.8c0,-0.33 -0.3,-0.59 -0.66,-0.59z"/>
  <path class="fil53" d="M93.01 52.47c-0.37,0 -0.66,0.26 -0.66,0.59l0 24.34c0,0.33 0.3,0.59 0.66,0.59 0.37,0 0.66,-0.26 0.66,-0.59l0 -24.34c0,-0.33 -0.3,-0.59 -0.66,-0.59z"/>
  <path class="fil53" d="M99.61 52.47c-0.37,0 -0.66,0.26 -0.66,0.59l0 18.44c0,0.33 0.3,0.59 0.66,0.59 0.37,0 0.66,-0.26 0.66,-0.59l0 -18.44c0,-0.33 -0.3,-0.59 -0.66,-0.59z"/>
  <path class="fil53" d="M106.2 52.47c-0.37,0 -0.66,0.26 -0.66,0.59l0 38.49c0,0.33 0.3,0.59 0.66,0.59 0.37,0 0.66,-0.26 0.66,-0.59l0 -38.49c0,-0.33 -0.3,-0.59 -0.66,-0.59z"/>
  <path class="fil53" d="M112.8 52.47c-0.37,0 -0.66,0.26 -0.66,0.59l0 24.34c0,0.33 0.3,0.59 0.66,0.59 0.37,0 0.66,-0.26 0.66,-0.59l0 -24.34c0,-0.33 -0.3,-0.59 -0.66,-0.59z"/>
  <path class="fil53" d="M119.4 52.47c-0.37,0 -0.66,0.26 -0.66,0.59l0 47.92c0,0.33 0.3,0.59 0.66,0.59 0.37,0 0.66,-0.26 0.66,-0.59l0 -47.92c0,-0.33 -0.3,-0.59 -0.66,-0.59z"/>
  <path class="fil53" d="M125.99 52.47c-0.37,0 -0.66,0.26 -0.66,0.59l0 12.55c0,0.33 0.3,0.59 0.66,0.59 0.37,0 0.66,-0.26 0.66,-0.59l0 -12.55c0,-0.33 -0.3,-0.59 -0.66,-0.59z"/>
  <path class="fil53" d="M132.59 52.47c-0.37,0 -0.66,0.26 -0.66,0.59l0 18.44c0,0.33 0.3,0.59 0.66,0.59 0.37,0 0.66,-0.26 0.66,-0.59l0 -18.44c0,-0.33 -0.3,-0.59 -0.66,-0.59z"/>
  <path class="fil53" d="M139.19 52.47c-0.37,0 -0.66,0.26 -0.66,0.59l0 24.34c0,0.33 0.3,0.59 0.66,0.59 0.37,0 0.66,-0.26 0.66,-0.59l0 -24.34c0,-0.33 -0.3,-0.59 -0.66,-0.59z"/>
  <path class="fil53" d="M145.78 52.47c-0.37,0 -0.66,0.26 -0.66,0.59l0 31.41c0,0.33 0.3,0.59 0.66,0.59 0.37,0 0.66,-0.26 0.66,-0.59l0 -31.41c0,-0.33 -0.3,-0.59 -0.66,-0.59z"/>
  <path class="fil53" d="M152.38 52.47c-0.37,0 -0.67,0.26 -0.67,0.59l0 36.13c0,0.33 0.3,0.59 0.67,0.59 0.37,0 0.66,-0.26 0.66,-0.59l0 -36.13c0,-0.33 -0.3,-0.59 -0.66,-0.59z"/>
  <path class="fil53" d="M158.97 52.47c-0.37,0 -0.66,0.26 -0.66,0.59l0 42.03c0,0.33 0.3,0.59 0.66,0.59 0.37,0 0.66,-0.26 0.66,-0.59l0 -42.03c0,-0.33 -0.3,-0.59 -0.66,-0.59z"/>
  <path class="fil53" d="M165.57 52.47c-0.37,0 -0.66,0.26 -0.66,0.59l0 24.34c0,0.33 0.3,0.59 0.66,0.59 0.37,0 0.66,-0.26 0.66,-0.59l0 -24.34c0,-0.33 -0.3,-0.59 -0.66,-0.59z"/>
  <path class="fil53" d="M172.17 52.47c-0.37,0 -0.66,0.26 -0.66,0.59l0 39.67c0,0.33 0.3,0.59 0.66,0.59 0.37,0 0.66,-0.26 0.66,-0.59l0 -39.67c0,-0.33 -0.3,-0.59 -0.66,-0.59z"/>
  <path class="fil53" d="M178.76 52.47c-0.37,0 -0.66,0.26 -0.66,0.59l0 12.55c0,0.33 0.3,0.59 0.66,0.59 0.37,0 0.66,-0.26 0.66,-0.59l0 -12.55c0,-0.33 -0.3,-0.59 -0.66,-0.59z"/>
  <path class="fil53" d="M185.36 52.47c-0.37,0 -0.66,0.26 -0.66,0.59l0 21.98c0,0.33 0.3,0.59 0.66,0.59 0.37,0 0.66,-0.26 0.66,-0.59l0 -21.98c0,-0.33 -0.3,-0.59 -0.66,-0.59z"/>
  <path class="fil53" d="M191.96 52.47c-0.37,0 -0.66,0.26 -0.66,0.59l0 30.23c0,0.33 0.3,0.59 0.66,0.59 0.37,0 0.66,-0.26 0.66,-0.59l0 -30.23c0,-0.33 -0.3,-0.59 -0.66,-0.59z"/>
  <path class="fil53" d="M198.55 52.47c-0.37,0 -0.66,0.26 -0.66,0.59l0 36.13c0,0.33 0.3,0.59 0.66,0.59 0.37,0 0.66,-0.26 0.66,-0.59l0 -36.13c0,-0.33 -0.3,-0.59 -0.66,-0.59z"/>
  <path class="fil53" d="M205.15 52.47c-0.37,0 -0.66,0.26 -0.66,0.59l0 24.34c0,0.33 0.3,0.59 0.66,0.59 0.37,0 0.66,-0.26 0.66,-0.59l0 -24.34c0,-0.33 -0.3,-0.59 -0.66,-0.59z"/>
  <path class="fil53" d="M211.74 52.47c-0.37,0 -0.66,0.26 -0.66,0.59l0 45.56c0,0.33 0.3,0.59 0.66,0.59 0.37,0 0.66,-0.26 0.66,-0.59l0 -45.56c0,-0.33 -0.3,-0.59 -0.66,-0.59z"/>
  <path class="fil53" d="M218.34 52.47c-0.37,0 -0.66,0.26 -0.66,0.59l0 39.67c0,0.33 0.3,0.59 0.66,0.59 0.37,0 0.66,-0.26 0.66,-0.59l0 -39.67c0,-0.33 -0.3,-0.59 -0.66,-0.59z"/>
  <path class="fil53" d="M224.94 52.47c-0.37,0 -0.66,0.26 -0.66,0.59l0 32.59c0,0.33 0.3,0.59 0.66,0.59 0.37,0 0.66,-0.26 0.66,-0.59l0 -32.59c0,-0.33 -0.3,-0.59 -0.66,-0.59z"/>
  <path class="fil53" d="M231.53 52.47c-0.37,0 -0.66,0.26 -0.66,0.59l0 24.34c0,0.33 0.3,0.59 0.66,0.59 0.37,0 0.67,-0.26 0.67,-0.59l0 -24.34c0,-0.33 -0.3,-0.59 -0.67,-0.59z"/>
  <path class="fil53" d="M238.13 52.47c-0.37,0 -0.66,0.26 -0.66,0.59l0 29.05c0,0.33 0.3,0.59 0.66,0.59 0.37,0 0.66,-0.26 0.66,-0.59l0 -29.05c0,-0.33 -0.3,-0.59 -0.66,-0.59z"/>
  <path class="fil53" d="M244.73 52.47c-0.37,0 -0.66,0.26 -0.66,0.59l0 36.13c0,0.33 0.3,0.59 0.66,0.59 0.37,0 0.66,-0.26 0.66,-0.59l0 -36.13c0,-0.33 -0.3,-0.59 -0.66,-0.59z"/>
  <path class="fil53" d="M251.32 52.47c-0.37,0 -0.66,0.26 -0.66,0.59l0 39.67c0,0.33 0.3,0.59 0.66,0.59 0.37,0 0.66,-0.26 0.66,-0.59l0 -39.67c0,-0.33 -0.3,-0.59 -0.66,-0.59z"/>
  <path class="fil53" d="M257.92 52.47c-0.37,0 -0.66,0.26 -0.66,0.59l0 44.38c0,0.33 0.3,0.59 0.66,0.59 0.37,0 0.66,-0.26 0.66,-0.59l0 -44.38c0,-0.33 -0.3,-0.59 -0.66,-0.59z"/>
  <path class="fil53" d="M264.52 52.47c-0.37,0 -0.66,0.26 -0.66,0.59l0 31.41c0,0.33 0.3,0.59 0.66,0.59 0.37,0 0.66,-0.26 0.66,-0.59l0 -31.41c0,-0.33 -0.3,-0.59 -0.66,-0.59z"/>
  <path class="fil53" d="M271.11 52.47c-0.37,0 -0.66,0.26 -0.66,0.59l0 19.62c0,0.33 0.3,0.59 0.66,0.59 0.37,0 0.66,-0.26 0.66,-0.59l0 -19.62c0,-0.33 -0.3,-0.59 -0.66,-0.59z"/>
  <path class="fil53" d="M277.71 52.47c-0.37,0 -0.66,0.26 -0.66,0.59l0 24.34c0,0.33 0.3,0.59 0.66,0.59 0.37,0 0.66,-0.26 0.66,-0.59l0 -24.34c0,-0.33 -0.3,-0.59 -0.66,-0.59z"/>
  <path class="fil53" d="M284.3 52.47c-0.37,0 -0.66,0.26 -0.66,0.59l0 29.05c0,0.33 0.3,0.59 0.66,0.59 0.37,0 0.66,-0.26 0.66,-0.59l0 -29.05c0,-0.33 -0.3,-0.59 -0.66,-0.59z"/>
  <path class="fil53" d="M290.9 52.47c-0.37,0 -0.66,0.26 -0.66,0.59l0 33.77c0,0.33 0.3,0.59 0.66,0.59 0.37,0 0.66,-0.26 0.66,-0.59l0 -33.77c0,-0.33 -0.3,-0.59 -0.66,-0.59z"/>
  <path class="fil53" d="M297.5 52.47c-0.37,0 -0.66,0.26 -0.66,0.59l0 39.67c0,0.33 0.3,0.59 0.66,0.59 0.37,0 0.66,-0.26 0.66,-0.59l0 -39.67c0,-0.33 -0.3,-0.59 -0.66,-0.59z"/>
  <path class="fil53" d="M304.09 52.47c-0.37,0 -0.66,0.26 -0.66,0.59l0 13.73c0,0.33 0.3,0.59 0.66,0.59 0.37,0 0.66,-0.26 0.66,-0.59l0 -13.73c0,-0.33 -0.3,-0.59 -0.66,-0.59z"/>
  <path class="fil53" d="M310.69 52.47c-0.37,0 -0.66,0.26 -0.66,0.59l0 20.8c0,0.33 0.3,0.59 0.66,0.59 0.37,0 0.66,-0.26 0.66,-0.59l0 -20.8c0,-0.33 -0.3,-0.59 -0.66,-0.59z"/>
  <path class="fil53" d="M317.29 52.47c-0.37,0 -0.66,0.26 -0.66,0.59l0 25.52c0,0.33 0.3,0.59 0.66,0.59 0.37,0 0.66,-0.26 0.66,-0.59l0 -25.52c0,-0.33 -0.3,-0.59 -0.66,-0.59z"/>
  <path class="fil53" d="M323.88 52.47c-0.37,0 -0.66,0.26 -0.66,0.59l0 31.41c0,0.33 0.3,0.59 0.66,0.59 0.37,0 0.66,-0.26 0.66,-0.59l0 -31.41c0,-0.33 -0.3,-0.59 -0.66,-0.59z"/>
  <path class="fil53" d="M330.48 52.47c-0.37,0 -0.66,0.26 -0.66,0.59l0 12.55c0,0.33 0.3,0.59 0.66,0.59 0.37,0 0.66,-0.26 0.66,-0.59l0 -12.55c0,-0.33 -0.3,-0.59 -0.66,-0.59z"/>
  <path class="fil53" d="M337.07 52.47c-0.37,0 -0.66,0.26 -0.66,0.59l0 24.34c0,0.33 0.3,0.59 0.66,0.59 0.37,0 0.66,-0.26 0.66,-0.59l0 -24.34c0,-0.33 -0.3,-0.59 -0.66,-0.59z"/>
  <path class="fil53" d="M343.67 52.47c-0.37,0 -0.66,0.26 -0.66,0.59l0 29.05c0,0.33 0.3,0.59 0.66,0.59 0.37,0 0.66,-0.26 0.66,-0.59l0 -29.05c0,-0.33 -0.3,-0.59 -0.66,-0.59z"/>
 </g>
</svg>
